<?xml version="1.0" encoding="UTF-8" standalone="no"?>
<!-- Created with Inkscape (http://www.inkscape.org/) -->

<svg
   width="210mm"
   height="210mm"
   viewBox="0 0 210 210"
   version="1.1"
   id="svg5"
   inkscape:version="1.1 (c68e22c387, 2021-05-23)"
   sodipodi:docname="stamp.svg"
   xmlns:inkscape="http://www.inkscape.org/namespaces/inkscape"
   xmlns:sodipodi="http://sodipodi.sourceforge.net/DTD/sodipodi-0.dtd"
   xmlns="http://www.w3.org/2000/svg"
   xmlns:svg="http://www.w3.org/2000/svg">
  <sodipodi:namedview
     id="namedview7"
     pagecolor="#ffffff"
     bordercolor="#666666"
     borderopacity="1.0"
     inkscape:pageshadow="2"
     inkscape:pageopacity="0.0"
     inkscape:pagecheckerboard="0"
     inkscape:document-units="mm"
     showgrid="false"
     height="210mm"
     inkscape:zoom="0.35099607"
     inkscape:cx="636.75927"
     inkscape:cy="334.76158"
     inkscape:window-width="1920"
     inkscape:window-height="1000"
     inkscape:window-x="-11"
     inkscape:window-y="-11"
     inkscape:window-maximized="1"
     inkscape:current-layer="layer1" />
  <defs
     id="defs2" />
  <g
     inkscape:label="Layer 1"
     inkscape:groupmode="layer"
     id="layer1">
    <g
       aria-label="アフ
やん"
       transform="matrix(0.93656634,0,0,1.06773,4.7625002,5.8208336)"
       id="g53"
       style="font-size:102.292px;line-height:1.25;font-family:'Segoe UI';-inkscape-font-specification:'Segoe UI';writing-mode:tb-rl;fill:#999999;fill-opacity:0.901961;stroke-width:2.55731">
      <path
         d="m 138.68284,13.692197 q 7.2923,0.699262 21.07774,0.699262 h 42.55507 q 5.79389,0 7.64194,-0.599367 0.99894,-0.399578 1.54836,-0.399578 0.64932,0 1.54837,0.699262 2.29757,1.99789 3.74604,3.995781 0.54942,0.649314 0.54942,1.348576 0,0.948998 -1.04889,1.598312 -0.8491,0.499473 -2.24763,2.597258 -7.24235,10.888504 -19.52938,20.128748 -0.59937,0.449526 -1.24868,0.449526 -0.79916,0 -1.39852,-0.54942 -2.04784,-1.64826 -5.34436,-2.597258 13.48576,-8.59093 20.77806,-20.128748 h -46.75064 q -10.13929,0 -19.02991,0.948998 -0.19979,0 -0.29968,0 -1.14879,0 -1.39852,-1.148787 -0.79916,-3.246572 -1.14879,-7.042565 z m 7.49209,69.676436 q 15.48365,-8.091457 21.17764,-20.078801 5.09462,-10.638767 5.09462,-25.173422 0,-4.345412 -0.949,-8.441088 5.19452,0.349631 8.09146,1.398524 1.39852,0.54942 1.39852,1.64826 0,0.549419 -0.39958,1.348576 -0.79915,1.44847 -0.79915,4.994726 0,15.5336 -5.84383,27.22126 -5.89378,11.787555 -19.17975,20.228643 -0.949,0.549419 -1.69821,0.549419 -0.79916,0 -1.39852,-0.549419 -2.04784,-1.897997 -5.4942,-3.146678 z"
         id="path45"
         style="fill:#999999" />
      <path
         d="m 143.27799,119.58039 q 8.44108,0.79916 19.62927,0.79916 h 36.21177 q 3.44636,0 5.14457,-0.89905 0.54942,-0.34963 1.19873,-0.34963 0.74921,0 1.44847,0.44952 2.54731,1.7981 4.59515,4.19557 0.54942,0.74921 0.54942,1.44847 0,0.949 -0.8491,1.69821 -1.19874,1.04889 -2.24763,3.49631 -7.19241,19.02991 -20.0788,33.56456 -13.88534,15.58355 -30.36794,24.624 -0.89905,0.59937 -1.74815,0.59937 -0.99895,0 -1.69821,-0.79916 -2.09778,-2.09778 -5.34436,-3.4963 11.78756,-5.84383 20.1787,-12.68661 6.3433,-5.14457 12.88639,-12.58671 13.18608,-14.78439 19.2297,-32.71546 h -39.2086 q -8.89062,0 -17.18186,0.64932 -0.24974,0 -0.34963,0 -1.24868,0 -1.49842,-1.64826 0,-0.39958 -0.24974,-3.29652 -0.19979,-2.09779 -0.24973,-3.04679 z"
         id="path47"
         style="fill:#999999" />
      <path
         d="m 34.592737,33.321473 q 9.839611,-4.145623 18.280699,-6.94267 10.688715,-3.895887 19.429487,-3.895887 9.539927,0 14.684496,5.094621 4.545201,4.495254 4.545201,11.987344 0,9.839611 -7.991563,14.834338 -6.543091,4.095676 -17.181859,4.095676 -3.246572,0 -4.794938,-0.199789 -1.148787,-0.09989 -1.648259,-1.048893 -1.298629,-3.696098 -2.946889,-5.793883 4.794938,0.799156 9.090402,0.799156 8.740772,0 13.535709,-3.596203 4.595149,-3.446361 4.595149,-9.589875 0,-5.943724 -4.295465,-8.590929 -2.996836,-1.848049 -7.591984,-1.848049 -7.142459,0 -16.232862,2.946888 -7.242353,2.447416 -19.329592,7.591985 14.684497,42.055597 16.532545,47.499849 0.249737,0.599368 0.249737,0.899051 0,0.499473 -0.849104,0.899051 -2.347521,1.248682 -5.044674,1.848049 -0.199789,0.04995 -0.299683,0.04995 -0.399578,0 -0.599367,-0.649314 -8.391141,-27.121366 -15.933178,-47.799534 -7.342248,3.246573 -12.087238,5.344358 -4.145623,1.897996 -5.4942,3.196625 -0.849103,0.799156 -1.548365,0.799156 -0.849103,0 -1.7481541,-1.048892 -2.447416,-2.7471 -4.2954648,-6.343303 5.9936719,-1.248682 10.3390839,-2.946889 1.298629,-0.54942 3.795992,-1.498418 5.29441,-1.99789 8.690824,-3.446361 -1.848048,-5.494199 -3.995781,-11.238135 -1.99789,-5.244463 -4.894832,-9.390086 4.39536,-0.948998 8.640877,-0.948998 1.348576,0 1.348576,1.548365 -0.04995,0.349631 -0.04995,0.699262 0,0.749209 0.349631,2.247627 0.249736,1.048893 2.047838,6.742881 0.649314,2.047838 1.548365,4.495254 0.799156,2.247627 1.148787,3.196625 z M 46.530134,9.097049 q 2.597257,-2.1477324 4.695042,-3.4963086 0.449526,-0.2996836 0.749209,-0.2996836 0.249737,0 0.799157,0.2996836 5.84383,3.7959922 11.038345,9.7397166 0.299684,0.399578 0.299684,0.749209 0,0.399578 -0.299684,0.799156 -1.947943,2.147733 -3.895886,3.346467 -0.249737,0.199789 -0.499473,0.199789 -0.449525,0 -0.799156,-0.499472 Q 53.522751,13.342567 46.530134,9.097049 Z"
         id="path49"
         style="fill:#999999" />
      <path
         d="m 43.533298,109.64089 q 4.794937,1.94794 7.392195,3.89588 0.899051,0.64932 0.899051,1.49842 0,0.74921 -0.699262,1.49842 -1.64826,1.44847 -3.09673,4.14562 -17.331702,32.41578 -19.928959,37.06087 l 0.199789,0.19979 q 7.2923,-7.49209 14.434759,-7.49209 7.542037,0 11.038346,5.64404 2.597258,4.09568 3.396414,12.03729 0.699262,7.59199 2.497363,10.58883 1.848049,3.14667 5.644041,3.14667 7.142459,0 13.136131,-7.04256 5.544147,-6.94267 8.59093,-16.88218 1.398523,3.49631 3.64615,5.39431 0.749209,0.54942 0.749209,1.44847 0,0.54942 -0.249736,1.19873 -2.946889,7.89167 -8.04151,13.93529 -7.142459,8.99051 -17.931068,8.99051 -7.542037,0 -10.938451,-5.19452 -2.697153,-4.19557 -3.696098,-13.28597 -0.899051,-8.29125 -3.09673,-11.48787 -1.997891,-2.847 -5.793883,-2.847 -6.642987,0 -14.085129,8.79072 -5.194516,6.39325 -12.586711,22.57617 -0.399578,0.94899 -0.998945,0.94899 -0.349631,0 -0.849104,-0.24973 -2.697152,-1.14879 -4.4952537,-2.64721 -0.4994727,-0.39957 -0.4994727,-0.8491 0,-0.34963 0.2996836,-0.89905 21.7270608,-42.40523 31.0671988,-62.33419 3.346467,-7.49209 3.995782,-11.78755 z"
         id="path51"
         style="fill:#999999" />
    </g>
    <g
       aria-label="アフ
やん"
       transform="matrix(0.93656634,0,0,1.06773,-1.5875,-3.1750001)"
       id="text231"
       style="font-size:102.292px;line-height:1.25;font-family:'Segoe UI';-inkscape-font-specification:'Segoe UI';writing-mode:tb-rl;fill-opacity:0.901961;stroke-width:2.55731">
      <path
         d="m 138.68284,13.692197 q 7.2923,0.699262 21.07774,0.699262 h 42.55507 q 5.79389,0 7.64194,-0.599367 0.99894,-0.399578 1.54836,-0.399578 0.64932,0 1.54837,0.699262 2.29757,1.99789 3.74604,3.995781 0.54942,0.649314 0.54942,1.348576 0,0.948998 -1.04889,1.598312 -0.8491,0.499473 -2.24763,2.597258 -7.24235,10.888504 -19.52938,20.128748 -0.59937,0.449526 -1.24868,0.449526 -0.79916,0 -1.39852,-0.54942 -2.04784,-1.64826 -5.34436,-2.597258 13.48576,-8.59093 20.77806,-20.128748 h -46.75064 q -10.13929,0 -19.02991,0.948998 -0.19979,0 -0.29968,0 -1.14879,0 -1.39852,-1.148787 -0.79916,-3.246572 -1.14879,-7.042565 z m 7.49209,69.676436 q 15.48365,-8.091457 21.17764,-20.078801 5.09462,-10.638767 5.09462,-25.173422 0,-4.345412 -0.949,-8.441088 5.19452,0.349631 8.09146,1.398524 1.39852,0.54942 1.39852,1.64826 0,0.549419 -0.39958,1.348576 -0.79915,1.44847 -0.79915,4.994726 0,15.5336 -5.84383,27.22126 -5.89378,11.787555 -19.17975,20.228643 -0.949,0.549419 -1.69821,0.549419 -0.79916,0 -1.39852,-0.549419 -2.04784,-1.897997 -5.4942,-3.146678 z"
         id="path9" />
      <path
         d="m 143.27799,119.58039 q 8.44108,0.79916 19.62927,0.79916 h 36.21177 q 3.44636,0 5.14457,-0.89905 0.54942,-0.34963 1.19873,-0.34963 0.74921,0 1.44847,0.44952 2.54731,1.7981 4.59515,4.19557 0.54942,0.74921 0.54942,1.44847 0,0.949 -0.8491,1.69821 -1.19874,1.04889 -2.24763,3.49631 -7.19241,19.02991 -20.0788,33.56456 -13.88534,15.58355 -30.36794,24.624 -0.89905,0.59937 -1.74815,0.59937 -0.99895,0 -1.69821,-0.79916 -2.09778,-2.09778 -5.34436,-3.4963 11.78756,-5.84383 20.1787,-12.68661 6.3433,-5.14457 12.88639,-12.58671 13.18608,-14.78439 19.2297,-32.71546 h -39.2086 q -8.89062,0 -17.18186,0.64932 -0.24974,0 -0.34963,0 -1.24868,0 -1.49842,-1.64826 0,-0.39958 -0.24974,-3.29652 -0.19979,-2.09779 -0.24973,-3.04679 z"
         id="path11" />
      <path
         d="m 34.592737,33.321473 q 9.839611,-4.145623 18.280699,-6.94267 10.688715,-3.895887 19.429487,-3.895887 9.539927,0 14.684496,5.094621 4.545201,4.495254 4.545201,11.987344 0,9.839611 -7.991563,14.834338 -6.543091,4.095676 -17.181859,4.095676 -3.246572,0 -4.794938,-0.199789 -1.148787,-0.09989 -1.648259,-1.048893 -1.298629,-3.696098 -2.946889,-5.793883 4.794938,0.799156 9.090402,0.799156 8.740772,0 13.535709,-3.596203 4.595149,-3.446361 4.595149,-9.589875 0,-5.943724 -4.295465,-8.590929 -2.996836,-1.848049 -7.591984,-1.848049 -7.142459,0 -16.232862,2.946888 -7.242353,2.447416 -19.329592,7.591985 14.684497,42.055597 16.532545,47.499849 0.249737,0.599368 0.249737,0.899051 0,0.499473 -0.849104,0.899051 -2.347521,1.248682 -5.044674,1.848049 -0.199789,0.04995 -0.299683,0.04995 -0.399578,0 -0.599367,-0.649314 -8.391141,-27.121366 -15.933178,-47.799534 -7.342248,3.246573 -12.087238,5.344358 -4.145623,1.897996 -5.4942,3.196625 -0.849103,0.799156 -1.548365,0.799156 -0.849103,0 -1.7481541,-1.048892 -2.447416,-2.7471 -4.2954648,-6.343303 5.9936719,-1.248682 10.3390839,-2.946889 1.298629,-0.54942 3.795992,-1.498418 5.29441,-1.99789 8.690824,-3.446361 -1.848048,-5.494199 -3.995781,-11.238135 -1.99789,-5.244463 -4.894832,-9.390086 4.39536,-0.948998 8.640877,-0.948998 1.348576,0 1.348576,1.548365 -0.04995,0.349631 -0.04995,0.699262 0,0.749209 0.349631,2.247627 0.249736,1.048893 2.047838,6.742881 0.649314,2.047838 1.548365,4.495254 0.799156,2.247627 1.148787,3.196625 z M 46.530134,9.097049 q 2.597257,-2.1477324 4.695042,-3.4963086 0.449526,-0.2996836 0.749209,-0.2996836 0.249737,0 0.799157,0.2996836 5.84383,3.7959922 11.038345,9.7397166 0.299684,0.399578 0.299684,0.749209 0,0.399578 -0.299684,0.799156 -1.947943,2.147733 -3.895886,3.346467 -0.249737,0.199789 -0.499473,0.199789 -0.449525,0 -0.799156,-0.499472 Q 53.522751,13.342567 46.530134,9.097049 Z"
         id="path13" />
      <path
         d="m 43.533298,109.64089 q 4.794937,1.94794 7.392195,3.89588 0.899051,0.64932 0.899051,1.49842 0,0.74921 -0.699262,1.49842 -1.64826,1.44847 -3.09673,4.14562 -17.331702,32.41578 -19.928959,37.06087 l 0.199789,0.19979 q 7.2923,-7.49209 14.434759,-7.49209 7.542037,0 11.038346,5.64404 2.597258,4.09568 3.396414,12.03729 0.699262,7.59199 2.497363,10.58883 1.848049,3.14667 5.644041,3.14667 7.142459,0 13.136131,-7.04256 5.544147,-6.94267 8.59093,-16.88218 1.398523,3.49631 3.64615,5.39431 0.749209,0.54942 0.749209,1.44847 0,0.54942 -0.249736,1.19873 -2.946889,7.89167 -8.04151,13.93529 -7.142459,8.99051 -17.931068,8.99051 -7.542037,0 -10.938451,-5.19452 -2.697153,-4.19557 -3.696098,-13.28597 -0.899051,-8.29125 -3.09673,-11.48787 -1.997891,-2.847 -5.793883,-2.847 -6.642987,0 -14.085129,8.79072 -5.194516,6.39325 -12.586711,22.57617 -0.399578,0.94899 -0.998945,0.94899 -0.349631,0 -0.849104,-0.24973 -2.697152,-1.14879 -4.4952537,-2.64721 -0.4994727,-0.39957 -0.4994727,-0.8491 0,-0.34963 0.2996836,-0.89905 21.7270608,-42.40523 31.0671988,-62.33419 3.346467,-7.49209 3.995782,-11.78755 z"
         id="path15" />
    </g>
  </g>
</svg>
